<svg id="visual" viewBox="0 0 900 600" width="900" height="600" xmlns="http://www.w3.org/2000/svg" xmlns:xlink="http://www.w3.org/1999/xlink" version="1.1"><rect x="0" y="0" width="900" height="600" fill="#ebd5b4"></rect><defs><linearGradient id="grad1_0" x1="33.3%" y1="0%" x2="100%" y2="100%"><stop offset="20%" stop-color="#fbae3c" stop-opacity="1"></stop><stop offset="80%" stop-color="#fbae3c" stop-opacity="1"></stop></linearGradient></defs><defs><linearGradient id="grad1_1" x1="33.3%" y1="0%" x2="100%" y2="100%"><stop offset="20%" stop-color="#fbae3c" stop-opacity="1"></stop><stop offset="80%" stop-color="#f4c27a" stop-opacity="1"></stop></linearGradient></defs><defs><linearGradient id="grad1_2" x1="33.3%" y1="0%" x2="100%" y2="100%"><stop offset="20%" stop-color="#ebd5b4" stop-opacity="1"></stop><stop offset="80%" stop-color="#f4c27a" stop-opacity="1"></stop></linearGradient></defs><defs><linearGradient id="grad2_0" x1="0%" y1="0%" x2="66.7%" y2="100%"><stop offset="20%" stop-color="#fbae3c" stop-opacity="1"></stop><stop offset="80%" stop-color="#fbae3c" stop-opacity="1"></stop></linearGradient></defs><defs><linearGradient id="grad2_1" x1="0%" y1="0%" x2="66.7%" y2="100%"><stop offset="20%" stop-color="#f4c27a" stop-opacity="1"></stop><stop offset="80%" stop-color="#fbae3c" stop-opacity="1"></stop></linearGradient></defs><defs><linearGradient id="grad2_2" x1="0%" y1="0%" x2="66.7%" y2="100%"><stop offset="20%" stop-color="#f4c27a" stop-opacity="1"></stop><stop offset="80%" stop-color="#ebd5b4" stop-opacity="1"></stop></linearGradient></defs><g transform="translate(900, 0)"><path d="M0 378.6C-56.3 379.9 -112.6 381.2 -144.9 349.8C-177.2 318.3 -185.5 254.1 -217.1 217.1C-248.7 180 -303.6 170.2 -334.4 138.5C-365.2 106.9 -371.9 53.4 -378.6 0L0 0Z" fill="#f0cc97"></path><path d="M0 252.4C-37.5 253.3 -75.1 254.1 -96.6 233.2C-118.1 212.2 -123.6 169.4 -144.7 144.7C-165.8 120 -202.4 113.5 -223 92.4C-243.5 71.3 -247.9 35.6 -252.4 0L0 0Z" fill="#f8b95c"></path><path d="M0 126.2C-18.8 126.6 -37.5 127.1 -48.3 116.6C-59.1 106.1 -61.8 84.7 -72.4 72.4C-82.9 60 -101.2 56.7 -111.5 46.2C-121.7 35.6 -124 17.8 -126.2 0L0 0Z" fill="#fbae3c"></path></g><g transform="translate(0, 600)"><path d="M0 -378.6C35 -334.9 69.9 -291.2 114 -275.3C158.1 -259.4 211.4 -271.4 254.6 -254.6C297.7 -237.7 330.8 -192.1 349.8 -144.9C368.8 -97.7 373.7 -48.8 378.6 0L0 0Z" fill="#f0cc97"></path><path d="M0 -252.4C23.3 -223.3 46.6 -194.1 76 -183.5C105.4 -173 140.9 -180.9 169.7 -169.7C198.5 -158.5 220.5 -128.1 233.2 -96.6C245.8 -65.1 249.1 -32.6 252.4 0L0 0Z" fill="#f8b95c"></path><path d="M0 -126.2C11.7 -111.6 23.3 -97.1 38 -91.8C52.7 -86.5 70.5 -90.5 84.9 -84.9C99.2 -79.2 110.3 -64 116.6 -48.3C122.9 -32.6 124.6 -16.3 126.2 0L0 0Z" fill="#fbae3c"></path></g></svg>