<svg id="visual" viewBox="0 0 900 600" width="900" height="600" xmlns="http://www.w3.org/2000/svg" xmlns:xlink="http://www.w3.org/1999/xlink" version="1.1"><path d="M0 253L13.7 226C27.3 199 54.7 145 82 119C109.3 93 136.7 95 163.8 115C191 135 218 173 245.2 177C272.3 181 299.7 151 327 145C354.3 139 381.7 157 409 180C436.3 203 463.7 231 491 252C518.3 273 545.7 287 573 261C600.3 235 627.7 169 654.8 156C682 143 709 183 736.2 196C763.3 209 790.7 195 818 190C845.3 185 872.7 189 886.3 191L900 193L900 0L886.3 0C872.7 0 845.3 0 818 0C790.7 0 763.3 0 736.2 0C709 0 682 0 654.8 0C627.7 0 600.3 0 573 0C545.7 0 518.3 0 491 0C463.7 0 436.3 0 409 0C381.7 0 354.3 0 327 0C299.7 0 272.3 0 245.2 0C218 0 191 0 163.8 0C136.7 0 109.3 0 82 0C54.7 0 27.3 0 13.7 0L0 0Z" fill="#190847"></path><path d="M0 337L13.7 318C27.3 299 54.7 261 82 233C109.3 205 136.7 187 163.8 195C191 203 218 237 245.2 250C272.3 263 299.7 255 327 258C354.3 261 381.7 275 409 285C436.3 295 463.7 301 491 318C518.3 335 545.7 363 573 340C600.3 317 627.7 243 654.8 229C682 215 709 261 736.2 274C763.3 287 790.7 267 818 271C845.3 275 872.7 303 886.3 317L900 331L900 191L886.3 189C872.7 187 845.3 183 818 188C790.7 193 763.3 207 736.2 194C709 181 682 141 654.8 154C627.7 167 600.3 233 573 259C545.7 285 518.3 271 491 250C463.7 229 436.3 201 409 178C381.7 155 354.3 137 327 143C299.7 149 272.3 179 245.2 175C218 171 191 133 163.8 113C136.7 93 109.3 91 82 117C54.7 143 27.3 197 13.7 224L0 251Z" fill="#1f0553"></path><path d="M0 469L13.7 473C27.3 477 54.7 485 82 476C109.3 467 136.7 441 163.8 429C191 417 218 419 245.2 424C272.3 429 299.7 437 327 438C354.3 439 381.7 433 409 430C436.3 427 463.7 427 491 440C518.3 453 545.7 479 573 481C600.3 483 627.7 461 654.8 442C682 423 709 407 736.2 406C763.3 405 790.7 419 818 425C845.3 431 872.7 429 886.3 428L900 427L900 329L886.3 315C872.7 301 845.3 273 818 269C790.7 265 763.3 285 736.2 272C709 259 682 213 654.8 227C627.7 241 600.3 315 573 338C545.7 361 518.3 333 491 316C463.7 299 436.3 293 409 283C381.7 273 354.3 259 327 256C299.7 253 272.3 261 245.2 248C218 235 191 201 163.8 193C136.7 185 109.3 203 82 231C54.7 259 27.3 297 13.7 316L0 335Z" fill="#26005f"></path><path d="M0 559L13.7 557C27.3 555 54.7 551 82 544C109.3 537 136.7 527 163.8 524C191 521 218 525 245.2 530C272.3 535 299.7 541 327 536C354.3 531 381.7 515 409 508C436.3 501 463.7 503 491 511C518.3 519 545.7 533 573 538C600.3 543 627.7 539 654.8 531C682 523 709 511 736.2 515C763.3 519 790.7 539 818 543C845.3 547 872.7 535 886.3 529L900 523L900 425L886.3 426C872.7 427 845.3 429 818 423C790.7 417 763.3 403 736.2 404C709 405 682 421 654.8 440C627.7 459 600.3 481 573 479C545.7 477 518.3 451 491 438C463.7 425 436.3 425 409 428C381.7 431 354.3 437 327 436C299.7 435 272.3 427 245.2 422C218 417 191 415 163.8 427C136.7 439 109.3 465 82 474C54.7 483 27.3 475 13.7 471L0 467Z" fill="#370978"></path><path d="M0 601L13.7 601C27.3 601 54.7 601 82 601C109.3 601 136.7 601 163.8 601C191 601 218 601 245.2 601C272.3 601 299.7 601 327 601C354.3 601 381.7 601 409 601C436.3 601 463.7 601 491 601C518.3 601 545.7 601 573 601C600.3 601 627.7 601 654.8 601C682 601 709 601 736.2 601C763.3 601 790.7 601 818 601C845.3 601 872.7 601 886.3 601L900 601L900 521L886.3 527C872.7 533 845.3 545 818 541C790.7 537 763.3 517 736.2 513C709 509 682 521 654.8 529C627.7 537 600.3 541 573 536C545.7 531 518.3 517 491 509C463.7 501 436.3 499 409 506C381.7 513 354.3 529 327 534C299.7 539 272.3 533 245.2 528C218 523 191 519 163.8 522C136.7 525 109.3 535 82 542C54.7 549 27.3 553 13.7 555L0 557Z" fill="#481591"></path></svg>